<?xml version="1.0" encoding="UTF-8"?>
<svg width="18px" height="18px" viewBox="0 0 18 18" version="1.1" xmlns="http://www.w3.org/2000/svg" xmlns:xlink="http://www.w3.org/1999/xlink">
    <title>Path</title>
    <g id="Website" stroke="none" stroke-width="1" fill="none" fill-rule="evenodd">
        <g id="Reseller" transform="translate(-224, -2874)" fill="#3FCAAA" fill-rule="nonzero">
            <g id="Group-29" transform="translate(170.5, 1942)">
                <g id="Group-27" transform="translate(0, 350)">
                    <g id="Group-26" transform="translate(54, 574)">
                        <g id="Group-25" transform="translate(0, 8)">
                            <path d="M6.32636462,18 C5.77225897,18 5.24745085,17.738979 4.91116604,17.2889429 L0.359856844,11.2185983 C0.0756701012,10.8399831 -0.0477624618,10.3628631 0.0167466237,9.89232978 C0.0812557092,9.42179643 0.328414901,8.9964465 0.703784491,8.70996831 C1.07902985,8.42229 1.55227901,8.29721094 2.01903906,8.36234846 C2.48579911,8.42748597 2.90767889,8.67748249 3.19152781,9.05713905 L6.18624595,13.0483167 L13.7157138,0.843336637 C14.2356405,0.00429168721 15.3302413,-0.251663794 16.1626953,0.271147834 C16.9944907,0.793189753 17.2505257,1.89899283 16.7308129,2.7399175 L7.83455105,17.1539321 C7.52622711,17.6557243 6.99227902,17.9714143 6.40788821,17.9974284 C6.37986448,18 6.35438836,18 6.32636462,18 L6.32636462,18 Z" id="Path"></path>
                        </g>
                    </g>
                </g>
            </g>
        </g>
    </g>
</svg>