<?xml version="1.0" encoding="UTF-8"?>
<svg width="10px" height="10px" viewBox="0 0 10 10" version="1.1" xmlns="http://www.w3.org/2000/svg" xmlns:xlink="http://www.w3.org/1999/xlink">
    <title>Path</title>
    <g id="Website" stroke="none" stroke-width="1" fill="none" fill-rule="evenodd">
        <g id="Home" transform="translate(-1392, -6573)" fill="#FFFFFF" fill-rule="nonzero">
            <path d="M1400.85271,6573.00025 C1400.71934,6573.00339 1400.56888,6573.03565 1400.39507,6573.07758 C1400.07718,6573.15431 1399.68551,6573.28876 1399.24225,6573.46556 C1398.35574,6573.81915 1397.26556,6574.34245 1396.20259,6574.91076 C1395.13963,6575.47904 1394.10511,6576.09168 1393.33116,6576.62582 C1392.9442,6576.8929 1392.62259,6577.13978 1392.39192,6577.35635 C1392.16124,6577.57291 1392,6577.74298 1392,6577.9568 C1392,6578.17066 1392.16124,6578.34075 1392.39192,6578.5573 C1392.62259,6578.77386 1392.9442,6579.02066 1393.33116,6579.28774 C1394.10511,6579.82188 1395.13961,6580.43454 1396.20259,6581.00282 C1397.26554,6581.57113 1398.35576,6582.09446 1399.24225,6582.44804 C1399.68551,6582.62484 1400.07718,6582.75931 1400.39507,6582.83602 C1400.71292,6582.91275 1400.95257,6582.95697 1401.15255,6582.85006 C1401.35254,6582.74313 1401.43097,6582.52884 1401.51816,6582.23555 C1401.60535,6581.94229 1401.67544,6581.56094 1401.73172,6581.11707 C1401.84428,6580.22935 1401.9,6579.09341 1401.9,6577.95682 C1401.9,6576.82021 1401.84428,6575.68427 1401.73172,6574.79653 C1401.67544,6574.35266 1401.60535,6573.97133 1401.51816,6573.67806 C1401.43097,6573.38478 1401.35254,6573.17049 1401.15255,6573.06356 C1401.07755,6573.02347 1400.997,6573.0046 1400.90882,6573.00075 C1400.89013,6573 1400.87141,6572.99979 1400.85271,6573.00025 L1400.85271,6573.00025 Z" id="Path"></path>
        </g>
    </g>
</svg>