<?xml version="1.0" encoding="UTF-8"?>
<svg width="29px" height="30px" viewBox="0 0 29 30" version="1.1" xmlns="http://www.w3.org/2000/svg" xmlns:xlink="http://www.w3.org/1999/xlink">
    <title>Path</title>
    <g id="Website" stroke="none" stroke-width="1" fill="none" fill-rule="evenodd">
        <g id="Install" transform="translate(-614, -2236)" fill="#FFFFFF">
            <g id="Group-2" transform="translate(514, 2138)">
                <g id="Group-Copy" transform="translate(63, 82)" fill-rule="nonzero">
                    <path d="M63.5833333,29.4210526 L63.5833333,27.8421053 C63.5833333,21.3018911 58.1734407,16 51.5,16 C44.8265593,16 39.4166667,21.3018911 39.4166667,27.8421053 L39.4166667,29.4210526 C38.0819785,29.4210526 37,30.4814309 37,31.7894737 L37,36.5263158 C37,37.8343586 38.0819785,38.8947368 39.4166667,38.8947368 L40.2222222,38.8947368 C40.2222222,39.7667654 40.9435412,40.4736842 41.8333333,40.4736842 C42.7231254,40.4736842 43.4444444,39.7667654 43.4444444,38.8947368 L43.4444444,29.4210526 C43.4409926,28.8586496 43.1325531,28.3405005 42.6347035,28.060765 C42.136854,27.7810296 41.5247576,27.7819411 41.0277778,28.0631579 L41.0277778,27.8421053 C41.0277778,22.1739197 45.7163514,17.5789474 51.5,17.5789474 C57.2836486,17.5789474 61.9722222,22.1739197 61.9722222,27.8421053 L61.9722222,28.0631579 C61.4752424,27.7819411 60.863146,27.7810296 60.3652965,28.060765 C59.8674469,28.3405005 59.5590074,28.8586496 59.5555556,29.4210526 L59.5555556,38.8947368 C59.5555556,39.7667654 60.2768746,40.4736842 61.1666667,40.4736842 C61.3715642,40.4747923 61.5744938,40.4344791 61.7627778,40.3552632 C61.0922869,42.7532167 58.8703347,44.4171052 56.3333333,44.4210526 L53.9166667,44.4210526 L53.9166667,43.6315789 C53.9166667,42.3235361 52.8346881,41.2631579 51.5,41.2631579 C50.1653119,41.2631579 49.0833333,42.3235361 49.0833333,43.6315789 C49.0833333,44.9396218 50.1653119,46 51.5,46 L56.3333333,46 C60.3373978,46 63.5833333,42.8188653 63.5833333,38.8947368 C64.9180215,38.8947368 66,37.8343586 66,36.5263158 L66,31.7894737 C66,30.4814309 64.9180215,29.4210526 63.5833333,29.4210526 Z" id="Path"></path>
                </g>
            </g>
        </g>
    </g>
</svg>