<?xml version="1.0" encoding="UTF-8"?>
<svg width="24px" height="24px" viewBox="0 0 24 24" version="1.1" xmlns="http://www.w3.org/2000/svg" xmlns:xlink="http://www.w3.org/1999/xlink">
    <title>g21</title>
    <g id="Website" stroke="none" stroke-width="1" fill="none" fill-rule="evenodd">
        <g id="g21" transform="translate(12.0357, 12.0357) scale(-1, 1) rotate(-180) translate(-12.0357, -12.0357)translate(0.2857, 0.2857)" fill-rule="nonzero">
            <g id="g27" transform="translate(0, 0.0861)" fill="#0866FF">
                <path d="M23.5,11.663943 C23.5,18.15328 18.239337,23.413943 11.75,23.413943 C5.260663,23.413943 0,18.15328 0,11.663943 C0,6.153428 3.793605,1.529709 8.911482,0.259957 L8.911482,8.073331 L6.488538,8.073331 L6.488538,11.663943 L8.911482,11.663943 L8.911482,13.211136 C8.911482,17.21046 10.721358,19.06414 14.647738,19.06414 C15.392124,19.06414 16.676587,18.918205 17.202047,18.772223 L17.202047,15.517285 C16.9247,15.546472 16.443044,15.561089 15.844593,15.561089 C13.917922,15.561089 13.173489,14.831273 13.173489,12.933789 L13.173489,11.663943 L17.011462,11.663943 L16.352146,8.073331 L13.173489,8.073331 L13.173489,0 C18.991431,0.702697 23.5,5.656497 23.5,11.663943" id="path29"></path>
            </g>
            <g id="g31" transform="translate(6.4885, 0)" fill="#FFFFFF">
                <path d="M9.863608,8.159388 L10.522971,11.75 L6.684998,11.75 L6.684998,13.019893 C6.684998,14.917377 7.429384,15.647146 9.356055,15.647146 C9.954506,15.647146 10.436162,15.632576 10.713509,15.603389 L10.713509,18.85828 C10.188049,19.004262 8.903586,19.150244 8.1592,19.150244 C4.232867,19.150244 2.422944,17.296517 2.422944,13.297193 L2.422944,11.75 L0,11.75 L0,8.159388 L2.422944,8.159388 L2.422944,0.346014 C3.332065,0.120508 4.28264,0 5.261462,0 C5.7434,0 6.218288,0.029704 6.684998,0.086057 L6.684998,8.159388 L9.863608,8.159388 Z" id="path33"></path>
            </g>
        </g>
    </g>
</svg>