<svg xmlns="http://www.w3.org/2000/svg" viewBox="9.10 14.60 440.20 74.80" width="440" height="75" role="img" aria-label="maxco."><defs><linearGradient id="g" x1="20" y1="12" x2="20" y2="52" gradientUnits="userSpaceOnUse"><stop offset="0%" stop-color="#22C8A0"/><stop offset="50%" stop-color="#44D77A"/><stop offset="100%" stop-color="#D4F04D"/></linearGradient></defs><g transform="translate(0.00,4.00) scale(1.5)"><g fill="none" stroke="url(#g)" stroke-width="3.4" stroke-linecap="round" stroke-linejoin="round"><path d="M20,13 V26 H45"/><path d="M12,32 H45"/><path d="M20,51 V38 H45"/></g><circle cx="20" cy="13" r="4.6" fill="url(#g)"/><circle cx="12" cy="32" r="4.6" fill="url(#g)"/><circle cx="20" cy="51" r="4.6" fill="url(#g)"/><circle cx="20" cy="26" r="2.3" fill="url(#g)"/><circle cx="20" cy="38" r="2.3" fill="url(#g)"/></g>
  <path d="M1016 327V0H820V301Q820 346 795.0 371.0Q770 396 727 396Q684 396 659.0 371.0Q634 346 634 301V0H438V301Q438 346 413.5 371.0Q389 396 346 396Q302 396 277.0 371.0Q252 346 252 301V0H56V561H252V487Q278 523 319.5 544.5Q361 566 415 566Q477 566 525.5 539.0Q574 512 602 463Q632 509 681.0 537.5Q730 566 789 566Q895 566 955.5 502.0Q1016 438 1016 327Z" transform="translate(69.00,80.0) scale(0.1,-0.1)" fill="#FFFFFF"/>
  <path d="M263 568Q321 568 363.0 545.0Q405 522 428 483V561H624V0H428V78Q405 39 362.5 16.0Q320 -7 263 -7Q196 -7 141.5 28.0Q87 63 55.5 128.5Q24 194 24 281Q24 368 55.5 433.0Q87 498 141.5 533.0Q196 568 263 568ZM326 397Q282 397 253.0 366.5Q224 336 224 281Q224 227 253.0 195.5Q282 164 326 164Q369 164 398.5 195.0Q428 226 428 281Q428 335 398.5 366.0Q369 397 326 397Z" transform="translate(173.70,80.0) scale(0.1,-0.1)" fill="#FFFFFF"/>
  <path d="M406 0 305 141 225 0H10L197 291L2 561H222L323 420L404 561H619L428 275L626 0Z" transform="translate(239.70,80.0) scale(0.1,-0.1)" fill="#FFFFFF"/>
  <path d="M308 568Q415 568 488.0 509.5Q561 451 582 346H374Q356 401 304 401Q267 401 245.5 370.5Q224 340 224 281Q224 222 245.5 191.0Q267 160 304 160Q357 160 374 215H582Q561 111 488.0 52.0Q415 -7 308 -7Q225 -7 160.5 28.0Q96 63 60.0 128.0Q24 193 24 281Q24 368 60.0 433.0Q96 498 160.5 533.0Q225 568 308 568Z" transform="translate(300.50,80.0) scale(0.1,-0.1)" fill="#FFFFFF"/>
  <path d="M24 281Q24 368 62.5 433.0Q101 498 167.5 533.0Q234 568 318 568Q402 568 468.5 533.0Q535 498 573.5 433.0Q612 368 612 281Q612 194 573.5 128.5Q535 63 468.0 28.0Q401 -7 317 -7Q233 -7 166.5 28.0Q100 63 62.0 128.0Q24 193 24 281ZM413 281Q413 338 385.5 368.0Q358 398 318 398Q278 398 251.0 368.0Q224 338 224 281Q224 223 250.0 193.0Q276 163 317 163Q358 163 385.5 193.5Q413 224 413 281Z" transform="translate(359.20,80.0) scale(0.1,-0.1)" fill="#FFFFFF"/>
  <path d="M36 93Q36 137 67.5 166.0Q99 195 151 195Q202 195 233.5 166.0Q265 137 265 93Q265 50 233.5 21.0Q202 -8 151 -8Q99 -8 67.5 20.5Q36 49 36 93Z" transform="translate(420.80,80.0) scale(0.1,-0.1)" fill="#FFFFFF"/>
</svg>
