<?xml version="1.0" encoding="UTF-8"?>
<svg width="19px" height="19px" viewBox="0 0 19 19" version="1.1" xmlns="http://www.w3.org/2000/svg" xmlns:xlink="http://www.w3.org/1999/xlink">
    <title>manage</title>
    <g id="Website" stroke="none" stroke-width="1" fill="none" fill-rule="evenodd">
        <g id="verify-success" transform="translate(-614, -687)" fill="#404040">
            <g id="Group" transform="translate(429, 668)" fill-rule="nonzero">
                <g id="Group-7" transform="translate(185, 16)">
                    <g id="manage" transform="translate(0, 3)">
                        <path d="M19,12.1500011 L19,17.0000011 C18.9967052,18.103203 18.1032019,18.9967063 17,19.0000011 L12.15,19.0000011 C11.0467981,18.9967063 10.1532948,18.103203 10.15,17.0000011 L10.15,12.1500011 C10.1532948,11.0467992 11.0467981,10.1532959 12.15,10.1500011 L17,10.1500011 C18.1032019,10.1532959 18.9967052,11.0467992 19,12.1500011 Z M6.85,1.09678876e-06 L2,1.09678876e-06 C0.896798134,0.0032958979 0.00329480111,0.896799231 0,2.0000011 L0,6.8500011 C0.00329480111,7.95320296 0.896798134,8.8467063 2,8.8500011 L6.85,8.8500011 C7.95320187,8.8467063 8.8467052,7.95320296 8.85,6.8500011 L8.85,2.0000011 C8.8467052,0.896799231 7.95320187,0.0032958979 6.85,1.09678876e-06 L6.85,1.09678876e-06 Z M6.85,10.1500011 L2,10.1500011 C0.896798134,10.1532959 0.00329480111,11.0467992 0,12.1500011 L0,17.0000011 C0.00329480111,18.103203 0.896798134,18.9967063 2,19.0000011 L6.85,19.0000011 C7.95320187,18.9967063 8.8467052,18.103203 8.85,17.0000011 L8.85,12.1500011 C8.8467052,11.0467992 7.95320187,10.1532959 6.85,10.1500011 Z M10.95,4.7700011 L10.95,4.0700011 C10.7233263,3.89800179 10.5243501,3.69228061 10.36,3.4600011 C10.2482648,3.2994143 10.2404499,3.08841327 10.34,2.9200011 L11.15,1.5100011 C11.2471731,1.33979371 11.4348305,1.24205544 11.63,1.2600011 C11.9150377,1.28523791 12.1947516,1.35263885 12.46,1.4600011 L13.07,1.1100011 C13.1046993,0.825398803 13.1857721,0.548399906 13.31,0.290001097 C13.389879,0.113217621 13.5660078,-0.000287603717 13.76,5.47352101e-07 L15.39,5.47352101e-07 C15.5839922,-0.000287603717 15.760121,0.113217621 15.84,0.290001097 C15.968912,0.54657881 16.0502275,0.824406948 16.08,1.1100011 L16.69,1.4600011 C16.9552484,1.35263885 17.2349623,1.28523791 17.52,1.2600011 C17.7151695,1.24205544 17.9028269,1.33979371 18,1.5100011 L18.81,2.9200011 C18.9095501,3.08841327 18.9017352,3.2994143 18.79,3.4600011 C18.6256499,3.69228061 18.4266737,3.89800179 18.2,4.0700011 L18.2,4.7700011 C18.4252872,4.94740823 18.6239752,5.15619911 18.79,5.3900011 C18.9017352,5.55058789 18.9095501,5.76158892 18.81,5.9300011 L18,7.3400011 C17.9028269,7.51020849 17.7151695,7.60794676 17.52,7.5900011 C17.2349623,7.56476428 16.9552484,7.49736334 16.69,7.3900011 L16.08,7.7400011 C16.0485846,8.02526947 15.9673527,8.30281194 15.84,8.5600011 C15.760121,8.73678457 15.5839922,8.8502898 15.39,8.85000165 L13.76,8.85000165 C13.5660078,8.8502898 13.389879,8.73678457 13.31,8.5600011 C13.1873334,8.30100571 13.1063359,8.024264 13.07,7.7400011 L12.46,7.3900011 C12.1947516,7.49736334 11.9150377,7.56476428 11.63,7.5900011 C11.4348305,7.60794676 11.2471731,7.51020849 11.15,7.3400011 L10.34,5.9300011 C10.2404499,5.76158892 10.2482648,5.55058789 10.36,5.3900011 C10.5260248,5.15619911 10.7247128,4.94740823 10.95,4.7700011 Z M13.58,4.4200011 C13.58,4.97228585 14.0277153,5.4200011 14.58,5.4200011 C15.1322847,5.4200011 15.58,4.97228585 15.58,4.4200011 C15.58,3.86771635 15.1322847,3.4200011 14.58,3.4200011 C14.0277153,3.4200011 13.58,3.86771635 13.58,4.4200011 Z" id="Shape"></path>
                    </g>
                </g>
            </g>
        </g>
    </g>
</svg>