<?xml version="1.0" encoding="UTF-8"?>
<svg width="25px" height="22px" viewBox="0 0 25 22" version="1.1" xmlns="http://www.w3.org/2000/svg"
    xmlns:xlink="http://www.w3.org/1999/xlink" fill="#fff">
    <title>Group 23</title>
    <defs>
        <polygon id="path-1" points="0 0 24.3 0 24.3 21.3015055 0 21.3015055"></polygon>
    </defs>
    <g id="Website" stroke="none" stroke-width="1" fill-rule="evenodd">
        <g id="Group-23" transform="translate(0, 0.6985)">
            <path
                d="M14.52897,11.9323081 C14.72337,11.9881687 14.9121,12.0456484 15.09435,12.11851 C15.41916,12.2472323 15.82011,12.5281544 15.91326,12.8260775 C15.9894,13.0729975 15.97563,13.3579675 15.82902,13.5603609 C15.50664,14.0040074 15.10974,14.1027754 14.63022,14.158636 C14.59863,14.1626838 14.56137,14.164303 14.52897,14.1667317 L14.52897,11.9323081 L14.52897,11.9323081 Z M12.74859,7.28535452 L12.74859,9.25099968 C12.5965733,9.20123061 12.4500183,9.13612936 12.31119,9.05670197 C12.13542,8.95226695 11.99205,8.82435429 11.90538,8.65191507 C11.80899,8.46085566 11.82357,8.2309367 11.88837,8.02773368 C11.92563,7.91439335 12.01149,7.79295728 12.07467,7.71604777 C12.16944,7.59946915 12.28527,7.51284475 12.42864,7.42945865 C12.5308694,7.3718291 12.6382546,7.32385643 12.7494,7.28616409 L12.74859,7.28535452 Z M12.90897,3.6341231 C12.8675825,3.63309044 12.8274698,3.64854302 12.7975181,3.67711131 C12.7675665,3.70567961 12.7502483,3.74500526 12.7494,3.78637661 L12.7494,5.0250245 C12.1394059,5.14023084 11.5522847,5.35406461 11.01114,5.6581112 C10.63044,5.87426741 10.31535,6.1430459 10.04886,6.44258821 C9.79611361,6.72885506 9.60651036,7.06510651 9.49239,7.42945865 C9.44136,7.58489682 9.38709,7.75409774 9.36522,7.95163375 C9.34484758,8.16477302 9.34213836,8.37923075 9.35712,8.59281619 C9.37089,8.80654367 9.41868,9.02512859 9.49239,9.25099968 C9.56205,9.46796545 9.64386,9.69464611 9.79614,9.90027785 C10.55268,10.9243887 11.6397,11.2700767 12.7494,11.5194254 L12.7494,14.0315329 C12.5437152,13.9879222 12.3408473,13.9319602 12.1419,13.8639511 C11.76525,13.7319906 11.37807,13.5320259 10.96902,13.2988686 C9.13842,12.2537089 8.31222,14.7480057 9.82935,15.4320955 C10.45143,15.7122081 11.01195,15.9647951 11.55141,16.0983748 C11.97018,16.2028098 12.36951,16.276481 12.7494,16.325865 L12.7494,17.5151289 C12.7494,17.6009437 12.82311,17.6673378 12.90897,17.6673378 L14.3775,17.6673378 C14.4179475,17.6677712 14.456856,17.6518515 14.485382,17.623188 C14.513908,17.5945245 14.5296284,17.5555522 14.52897,17.5151289 L14.52897,16.3679628 C14.9692028,16.3387362 15.405038,16.2624713 15.82902,16.1404726 C16.34661,15.9842249 16.767,15.7745453 17.09424,15.5162912 C17.42715,15.2539893 17.66691,14.9698289 17.84511,14.6557143 C18.02736,14.3351231 18.16101,14.0064361 18.19989,13.6696534 C18.25416,13.2009102 18.27684,12.760502 18.19989,12.3621917 C18.1134646,11.9415677 17.9316863,11.5463526 17.66853,11.2069299 C17.43606,10.8984823 16.99461,10.5867964 16.33527,10.2880637 C15.86871,10.0775745 15.26283,9.87194277 14.52897,9.6889791 L14.52897,7.20925458 C14.72337,7.24487583 14.904,7.28940239 15.06924,7.3444534 C15.46209,7.47641393 15.80229,7.63347125 16.10766,7.80833919 C17.56647,8.64948635 18.67698,6.79637195 17.35506,5.95360564 C17.01729,5.73744944 16.5645,5.42738267 15.88815,5.21122647 C15.446455,5.07126587 14.9906216,4.98058158 14.52897,4.94082883 L14.52897,3.78637661 C14.5298564,3.74588663 14.5142097,3.7067813 14.4856335,3.67806744 C14.4570574,3.64935359 14.4180154,3.63350672 14.3775,3.6341231 L12.90897,3.6341231 Z"
                id="Shape" fill-rule="nonzero"></path>
            <g id="Group-19">
                <mask id="mask-2" fill="white">
                    <use xlink:href="#path-1"></use>
                </mask>
                <g id="a"></g>
                <path
                    d="M0.66501,16.9670474 C0.69741,16.7427955 0.75978,16.5460691 0.85374,16.3760586 C1.0291492,16.0494516 1.3262947,15.8051118 1.68075,15.6960166 C1.86138,15.6393464 2.05497,15.6102018 2.26233,15.6102018 C2.47779,15.6102018 2.67381,15.6417752 2.84715,15.7024932 C3.0213,15.7640208 3.16953,15.849026 3.29265,15.9583185 C3.54050216,16.1746872 3.68036841,16.4892206 3.67497,16.8180859 C3.67497,16.9670474 3.65877,17.0981984 3.62475,17.2115387 C3.56914275,17.4239227 3.43362738,17.6066417 3.24648,17.7215702 C3.14813122,17.782378 3.04290412,17.8312951 2.93301,17.8672935 C3.21408,17.9563466 3.42306,18.0907359 3.56157,18.2720804 C3.69927,18.4534249 3.76974,18.6809152 3.76974,18.9553607 C3.76974,19.1885179 3.726,19.3949592 3.64014,19.573875 C3.55700602,19.7478584 3.43738884,19.901926 3.28941,20.0256172 C3.14361,20.1470533 2.9727,20.2401543 2.77911,20.3016819 C2.58075718,20.365541 2.37351638,20.3975125 2.16513,20.39643 C1.93023,20.39643 1.72449,20.3688765 1.54953,20.3154446 C1.21542852,20.2161576 0.933076493,19.9908593 0.76221,19.6872154 C0.665482604,19.5191314 0.587265936,19.3410649 0.52893,19.156135 L0.88209,19.0104117 C0.963574149,18.9728008 1.05490455,18.9620284 1.14291,18.9796479 C1.22391,18.9974585 1.28304,19.0411755 1.3203,19.1107988 C1.35837,19.1860892 1.4013,19.2613796 1.44747,19.3342412 C1.49364,19.4071028 1.54953,19.4726783 1.61433,19.5301581 C1.76389483,19.6603366 1.95718328,19.7291666 2.15541,19.7228366 C2.2923,19.7228366 2.41056,19.7009781 2.51181,19.6564516 C2.60736651,19.616352 2.69386569,19.5574314 2.76615,19.4832028 C2.89648982,19.3486423 2.96914378,19.1685553 2.96865,18.981267 C2.96865,18.8687363 2.95731,18.76673 2.93301,18.6752481 C2.90951995,18.5831629 2.85732169,18.5009372 2.78397,18.4404717 C2.68814773,18.3660976 2.5768901,18.3140941 2.45835,18.2882719 C2.27178134,18.2466517 2.08083599,18.2278934 1.88973,18.2324113 L1.88973,17.6632809 C2.08656,17.6608522 2.24937,17.6430416 2.37897,17.6082299 C2.50857,17.5734182 2.61144,17.5248438 2.68839,17.4641258 C2.76182009,17.4068866 2.81744467,17.3299517 2.84877,17.2423025 C2.88018465,17.1506292 2.89552996,17.0542237 2.89413,16.9573326 C2.89413,16.7363189 2.83257,16.5695467 2.70945,16.4553968 C2.58633,16.3404373 2.4219,16.2837672 2.21697,16.2837672 C2.12785454,16.2826941 2.03917595,16.2963718 1.95453,16.3242459 C1.80151596,16.3748807 1.66943696,16.4744569 1.57869,16.6075967 C1.53505548,16.6731814 1.50223795,16.745342 1.48149,16.8213242 C1.44504,16.9200922 1.39644,16.9864772 1.33731,17.0180506 C1.27818,17.0504335 1.19475,17.0585293 1.08621,17.0415282 L0.66501,16.9670474 L0.66501,16.9670474 Z M6.8445,18.0041115 C6.8445,17.6640905 6.81858,17.383978 6.76917,17.1621547 C6.73283837,16.9750076 6.66549211,16.7952384 6.56991,16.6302648 C6.50196241,16.5131091 6.40265998,16.4172233 6.28317,16.3533905 C6.07299521,16.2464003 5.82428479,16.2464003 5.61411,16.3533905 C5.49547786,16.4172515 5.39723012,16.5132031 5.33061,16.6302648 C5.23589544,16.795034 5.16962828,16.9745728 5.13459,17.1613452 C5.08599,17.383978 5.06169,17.6640905 5.06169,18.0033019 C5.06169,18.3417037 5.08599,18.6226258 5.13459,18.8452586 C5.18319,19.0670819 5.2488,19.2443785 5.33061,19.376339 C5.39723012,19.4934007 5.49547786,19.5893523 5.61411,19.6532133 C5.82428479,19.7602035 6.07299521,19.7602035 6.28317,19.6532133 C6.40265998,19.5893805 6.50196241,19.4934947 6.56991,19.376339 C6.66547699,19.2116475 6.7328252,19.0321468 6.76917,18.8452586 C6.81858,18.6226258 6.84369,18.3417037 6.84369,18.0033019 L6.8445,18.0041115 Z M7.66989,18.0033019 C7.66989,18.4113271 7.62615,18.7659204 7.53867,19.0670819 C7.46664276,19.3366667 7.34375003,19.5900168 7.1766,19.8135089 C7.03178627,20.0017304 6.84367377,20.1522523 6.62823,20.2522979 C6.41763,20.3478276 6.19083,20.396402 5.94621,20.396402 C5.70159,20.396402 5.47641,20.3478276 5.26743,20.2522979 C5.0536505,20.1521127 4.86741327,20.0015344 4.72473,19.8135089 C4.55802845,19.5900764 4.43592621,19.3366552 4.36509,19.0670819 C4.2727891,18.720202 4.22917185,18.3621838 4.23549,18.0033019 C4.23549,17.592848 4.27842,17.2382547 4.36509,16.9379028 C4.43589117,16.6688129 4.55800577,16.4159158 4.72473,16.1930949 C4.87863,15.9963685 5.05845,15.8498356 5.26743,15.7543059 C5.47641,15.6579666 5.70159,15.6102018 5.94621,15.6102018 C6.19002,15.6102018 6.41763,15.6587762 6.62823,15.7543059 C6.83883,15.8498356 7.02108,15.9963685 7.1766,16.1930949 C7.3305,16.3890118 7.452,16.6375509 7.53867,16.9379028 C7.62615,17.2374451 7.66989,17.5936576 7.66989,18.0033019 L7.66989,18.0033019 Z"
                    id="Shape" fill-rule="nonzero" opacity="0.5"></path>
            </g>
            <path
                d="M13.64364,0 C7.7679,0 2.98647,4.77729492 2.98647,10.6507528 C3.00591,10.7754271 3.01563,10.9098164 3.02049,11.0555396 L1.0449,9.09070407 L0,10.1358638 L3.81429,13.9481468 L7.62777,10.1358638 L6.58935,9.09070407 L4.6575,11.0118227 L4.6575,10.3212562 C4.8276,5.50105389 8.77797,1.66934115 13.64364,1.66934115 C18.61704,1.66934115 22.62897,5.67916012 22.62897,10.6507528 C22.6328477,13.0338169 21.6874529,15.3204038 20.0015587,17.0055627 C18.3156645,18.6907217 16.0279591,19.6358252 13.64364,19.6321644 L13.64364,21.3015055 C19.521,21.3015055 24.3,16.523401 24.3,10.6507528 C24.3,4.77729492 19.52019,0 13.64364,0 Z"
                id="Shape" fill-rule="nonzero" opacity="0.5"></path>
        </g>
    </g>
</svg>