<svg xmlns="http://www.w3.org/2000/svg" viewBox="0 0 24 24" fill="none" aria-hidden="true">
  <defs>
    <linearGradient id="resellers-privacy-grad" x1="2" y1="2" x2="22" y2="22" gradientUnits="userSpaceOnUse">
      <stop stop-color="#D4F04D" />
      <stop offset="0.52" stop-color="#44D77A" />
      <stop offset="1" stop-color="#22C8A0" />
    </linearGradient>
  </defs>
  <path d="M20 13c0 5-3.5 7.5-7.66 8.95a1 1 0 0 1-.67-.01C7.5 20.5 4 18 4 13V6a1 1 0 0 1 1-1c2 0 4.5-1.2 6.24-2.72a1.17 1.17 0 0 1 1.52 0C14.51 3.81 17 5 19 5a1 1 0 0 1 1 1z" stroke="url(#resellers-privacy-grad)" stroke-width="1.75" stroke-linecap="round" stroke-linejoin="round" />
  <path d="m9 12 2 2 4-4" stroke="url(#resellers-privacy-grad)" stroke-width="1.75" stroke-linecap="round" stroke-linejoin="round" />
</svg>
