<?xml version="1.0" encoding="UTF-8"?>
<svg width="22px" height="24px" viewBox="0 0 22 24" version="1.1" xmlns="http://www.w3.org/2000/svg" xmlns:xlink="http://www.w3.org/1999/xlink">
    <title>shield-check</title>
    <g id="Website" stroke="none" stroke-width="1" fill="none" fill-rule="evenodd">
        <g id="Verify-failed" transform="translate(-602, -1005)" fill="#FFFFFF">
            <g id="Group-12" transform="translate(429, 988)">
                <g id="Group-7" transform="translate(173, 16)">
                    <g id="shield-check" transform="translate(0, 1)">
                        <path d="M0.461413333,3.698892 C0,4.344336 0,6.262884 0,10.10004 L0,11.98968 C0,18.75528 5.18095111,22.0386 8.43157333,23.43276 C9.31333333,23.81088 9.75418889,24 11,24 C12.2458111,24 12.6866667,23.81088 13.5683778,23.43276 C16.819,22.0386 22,18.75528 22,11.98968 L22,10.10004 C22,6.262884 22,4.344336 21.5386111,3.698892 C21.0772222,3.053448 19.2398556,2.435952 15.5651222,1.200948 L14.8650333,0.965664 C12.9494444,0.321888 11.9917111,0 11,0 C10.0082889,0 9.05055556,0.321888 7.13499111,0.965664 L6.43489,1.200948 C2.76016889,2.435952 0.922814444,3.053448 0.461413333,3.698892 Z M14.7393889,10.1994 C15.0764778,9.8286 15.0437222,9.259704 14.6660556,8.92866 C14.2883889,8.597604 13.7089333,8.629812 13.3717222,9.000588 L9.69051111,13.04868 L8.62827778,11.8806 C8.29104222,11.5098 7.71157444,11.47764 7.33393222,11.8086 C6.95629,12.13968 6.92348556,12.7086 7.26067222,13.0794 L9.00667778,14.9994 C9.1806,15.19068 9.42932222,15.3 9.69051111,15.3 C9.95157778,15.3 10.2003,15.19068 10.3742222,14.9994 L14.7393889,10.1994 Z" id="Shape"></path>
                    </g>
                </g>
            </g>
        </g>
    </g>
</svg>