<?xml version="1.0" encoding="UTF-8"?>
<svg width="90px" height="99px" viewBox="0 0 90 99" version="1.1" xmlns="http://www.w3.org/2000/svg" xmlns:xlink="http://www.w3.org/1999/xlink">
    <title>shield-off</title>
    <g id="Website" stroke="none" stroke-width="1" fill="none" fill-rule="evenodd">
        <g id="Verify-failed" transform="translate(-675, -224)" fill="#FFFFFF">
            <g id="shield-off" transform="translate(675, 224)">
                <path d="M8.56585517,5.80855089 C7.29826041,4.53613866 5.45070079,4.03920512 3.71913414,4.50494032 C1.98756749,4.97067552 0.635059977,6.3283232 0.171088091,8.06647062 C-0.292883794,9.80461804 0.202168314,11.6591993 1.46976308,12.9316115 L81.4257303,93.1914491 C82.3640466,94.1410868 83.6413225,94.6752445 84.9737764,94.6752445 C86.3062303,94.6752445 87.5835062,94.1410868 88.5218224,93.1914491 C89.4678647,92.2495668 90,90.9674367 90,89.6299188 C90,88.292401 89.4678647,87.0102708 88.5218224,86.0683885 L8.56585517,5.80855089 Z M46.4949671,88.0247221 L44.9957928,88.8774828 L43.4966184,88.0247221 C22.8282299,76.3472729 10.0321838,54.3962948 10.0150571,30.5887758 L10.0150571,29.8865022 L10.8146168,29.4350406 L3.66855218,22.2116552 C1.3791618,24.1005298 0.0428923657,26.911848 0.0205611716,29.8865022 L0.0205611716,30.5887758 C0.0469273808,58.0278689 14.7875244,83.3277861 38.5993154,96.8031418 L40.0984898,97.6559026 C43.1907976,99.4480325 47.0006779,99.4480325 50.0929857,97.6559026 L51.5921601,96.8031418 C57.0392961,93.6444609 62.0750026,89.8196285 66.5839039,85.4162773 L59.4878118,78.2932168 C55.594152,82.0872003 51.2267852,85.3583125 46.4949671,88.0247221 L46.4949671,88.0247221 Z M84.9737764,21.1080824 L49.9930407,1.34409742 C46.9007329,-0.448032472 43.0908526,-0.448032472 39.9985448,1.34409742 L21.6086723,11.8280387 L28.9046543,19.4025609 L44.9957928,10.1225172 L79.9765284,29.8865022 L79.9765284,30.5887758 C79.9827826,41.6627035 77.1795245,52.5558219 71.8310143,62.2412492 L79.1769688,69.5649594 C86.2333083,57.7974843 89.9647714,44.3235689 89.9714265,30.5887758 L89.9714265,29.8865022 C90.003275,26.2701172 88.0940085,22.9162025 84.9737764,21.1080824 L84.9737764,21.1080824 Z" id="Shape" fill-rule="nonzero"></path>
            </g>
        </g>
    </g>
</svg>