<?xml version="1.0" encoding="UTF-8"?>
<svg width="31px" height="33px" viewBox="0 0 31 33" version="1.1" xmlns="http://www.w3.org/2000/svg" xmlns:xlink="http://www.w3.org/1999/xlink">
    <title>network</title>
    <defs>
        <filter x="-1.3%" y="-1.6%" width="102.5%" height="104.4%" filterUnits="objectBoundingBox" id="filter-1">
            <feOffset dx="0" dy="2" in="SourceAlpha" result="shadowOffsetOuter1"></feOffset>
            <feGaussianBlur stdDeviation="2" in="shadowOffsetOuter1" result="shadowBlurOuter1"></feGaussianBlur>
            <feColorMatrix values="0 0 0 0 0   0 0 0 0 0   0 0 0 0 0  0 0 0 0.15 0" type="matrix" in="shadowBlurOuter1" result="shadowMatrixOuter1"></feColorMatrix>
            <feMerge>
                <feMergeNode in="shadowMatrixOuter1"></feMergeNode>
                <feMergeNode in="SourceGraphic"></feMergeNode>
            </feMerge>
        </filter>
    </defs>
    <g id="Website" stroke="none" stroke-width="1" fill="none" fill-rule="evenodd">
        <g id="Home" transform="translate(-505, -6122)" fill="#6DFA9E" fill-rule="nonzero">
            <g id="zeordown" filter="url(#filter-1)" transform="translate(184, 5985)">
                <g id="Online" transform="translate(189.7153, 127.2)">
                    <g id="Group-12" transform="translate(16.146, 12.1143)">
                        <g id="network" transform="translate(120.0858, 0)">
                            <path d="M1.51368613,24.2285714 C0.677700365,24.2285714 0,23.5506026 0,22.7142857 L0,18.1714286 C0,17.3351117 0.677700365,16.6571429 1.51368613,16.6571429 C2.3496719,16.6571429 3.02737226,17.3351117 3.02737226,18.1714286 L3.02737226,22.7142857 C3.02737226,23.5506026 2.3496719,24.2285714 1.51368613,24.2285714 Z M7.56843066,24.2285714 C6.73244489,24.2285714 6.05474453,23.5506026 6.05474453,22.7142857 L6.05474453,13.6285714 C6.05474453,12.7922545 6.73244489,12.1142857 7.56843066,12.1142857 C8.40441642,12.1142857 9.08211679,12.7922545 9.08211679,13.6285714 L9.08211679,22.7142857 C9.08211679,23.5506026 8.40441642,24.2285714 7.56843066,24.2285714 Z M13.6231752,24.2285714 C12.7871894,24.2285714 12.1094891,23.5506026 12.1094891,22.7142857 L12.1094891,7.57142857 C12.1094891,6.73511166 12.7871894,6.05714286 13.6231752,6.05714286 C14.4591609,6.05714286 15.1368613,6.73511166 15.1368613,7.57142857 L15.1368613,22.7142857 C15.1368613,23.5506026 14.4591609,24.2285714 13.6231752,24.2285714 Z M19.6779197,24.2285714 C18.8419339,24.2285714 18.1642336,23.5506026 18.1642336,22.7142857 L18.1642336,1.51428571 C18.1642336,0.677968807 18.8419339,0 19.6779197,0 C20.5139055,0 21.1916058,0.677968807 21.1916058,1.51428571 L21.1916058,22.7142857 C21.1916058,23.5506026 20.5139055,24.2285714 19.6779197,24.2285714 Z" id="Shape"></path>
                        </g>
                    </g>
                </g>
            </g>
        </g>
    </g>
</svg>