<?xml version="1.0" encoding="UTF-8"?>
<svg width="29px" height="30px" viewBox="0 0 29 30" version="1.1" xmlns="http://www.w3.org/2000/svg" xmlns:xlink="http://www.w3.org/1999/xlink">
    <title>Path</title>
    <g id="Website" stroke="none" stroke-width="1" fill="none" fill-rule="evenodd">
        <g id="Verify-failed" transform="translate(-612, -1081)" fill="#FFFFFF">
            <g id="Group-12" transform="translate(429, 988)">
                <g id="Group-Copy" transform="translate(0, 77)" fill-rule="nonzero">
                    <g id="Group-8" transform="translate(183, 16)">
                        <path d="M26.5833333,13.4210526 L26.5833333,11.8421053 C26.5833333,5.30189112 21.1734407,0 14.5,0 C7.82655927,0 2.41666667,5.30189112 2.41666667,11.8421053 L2.41666667,13.4210526 C1.08197852,13.4210526 0,14.4814309 0,15.7894737 L0,20.5263158 C0,21.8343586 1.08197852,22.8947368 2.41666667,22.8947368 L3.22222222,22.8947368 C3.22222222,23.7667654 3.94354124,24.4736842 4.83333333,24.4736842 C5.72312543,24.4736842 6.44444444,23.7667654 6.44444444,22.8947368 L6.44444444,13.4210526 C6.44099264,12.8586496 6.13255308,12.3405005 5.63470355,12.060765 C5.13685402,11.7810296 4.52475763,11.7819411 4.02777778,12.0631579 L4.02777778,11.8421053 C4.02777778,6.17391967 8.71635137,1.57894737 14.5,1.57894737 C20.2836486,1.57894737 24.9722222,6.17391967 24.9722222,11.8421053 L24.9722222,12.0631579 C24.4752424,11.7819411 23.863146,11.7810296 23.3652965,12.060765 C22.8674469,12.3405005 22.5590074,12.8586496 22.5555556,13.4210526 L22.5555556,22.8947368 C22.5555556,23.7667654 23.2768746,24.4736842 24.1666667,24.4736842 C24.3715642,24.4747923 24.5744938,24.4344791 24.7627778,24.3552632 C24.0922869,26.7532167 21.8703347,28.4171052 19.3333333,28.4210526 L16.9166667,28.4210526 L16.9166667,27.6315789 C16.9166667,26.3235361 15.8346881,25.2631579 14.5,25.2631579 C13.1653119,25.2631579 12.0833333,26.3235361 12.0833333,27.6315789 C12.0833333,28.9396218 13.1653119,30 14.5,30 L19.3333333,30 C23.3373978,30 26.5833333,26.8188653 26.5833333,22.8947368 C27.9180215,22.8947368 29,21.8343586 29,20.5263158 L29,15.7894737 C29,14.4814309 27.9180215,13.4210526 26.5833333,13.4210526 Z" id="Path"></path>
                    </g>
                </g>
            </g>
        </g>
    </g>
</svg>