<?xml version="1.0" encoding="UTF-8"?>
<svg width="197px" height="49px" viewBox="0 0 197 49" version="1.1" xmlns="http://www.w3.org/2000/svg" xmlns:xlink="http://www.w3.org/1999/xlink">
    <title>Group</title>
    <g id="Website" stroke="none" stroke-width="1" fill="none" fill-rule="evenodd">
        <g id="Home" transform="translate(-890, -1796)">
            <g id="Group-7" transform="translate(344.9559, 1796)">
                <g id="Group" transform="translate(545.0768, 0)">
                    <path d="M51.7603591,17.2320574 L71.7928919,17.2320574 L71.7928919,20.9832536 L63.9188328,20.9832536 L63.9188328,42.2009569 L59.5186233,42.2009569 L59.5186233,20.9832536 L51.7603591,20.9832536 L51.7603591,17.2320574 L51.7603591,17.2320574 Z M70.750737,24.1483254 L74.4561766,24.1483254 L74.4561766,27.7822967 L74.4561766,27.7822967 C74.5719716,27.3133971 74.8035615,26.8444976 75.1509465,26.2583732 C75.4983315,25.7894737 75.9615114,25.437799 76.3088964,24.9688995 C76.7720763,24.6172249 77.2352563,24.2655502 77.9300262,24.0311005 C78.6247961,23.9138756 79.0879761,23.6794258 79.666951,23.6794258 C80.1301309,23.6794258 80.4775159,23.6794258 80.5933109,23.6794258 C80.7091059,23.6794258 80.9406958,23.6794258 81.0564908,23.6794258 L81.0564908,27.7822967 C80.7091059,27.7822967 80.5933109,27.6650718 80.2459259,27.6650718 C79.898541,27.6650718 79.551156,27.6650718 79.435361,27.6650718 C78.7405911,27.6650718 78.1616162,27.7822967 77.4668462,28.0167464 C76.7720763,28.1339713 76.3088964,28.7200957 75.9615114,29.1889952 C75.4983315,29.6578947 75.1509465,30.361244 75.0351515,31.1818182 C74.6877666,32.0023923 74.6877666,32.8229665 74.6877666,33.7607656 L74.6877666,42.4354067 L70.866532,42.4354067 L70.750737,24.1483254 L70.750737,24.1483254 Z M99.2363038,42.2009569 L95.4150692,42.2009569 L95.4150692,39.7392344 L95.4150692,39.7392344 C94.9518893,40.6770335 94.2571193,41.3803828 93.3307594,41.8492823 C92.4043996,42.3181818 91.3622447,42.6698565 90.4358848,42.6698565 C88.00419,42.6698565 86.3830602,41.9665072 85.2251104,40.9114833 C84.2987505,39.7392344 83.6039805,37.9808612 83.6039805,35.5191388 L83.6039805,24.1483254 L87.4252151,24.1483254 L87.4252151,35.284689 C87.4252151,36.9258373 87.7726001,38.0980861 88.351575,38.6842105 C89.0463449,39.3875598 89.8569098,39.6220096 90.8990647,39.6220096 C91.7096296,39.6220096 92.4043996,39.5047847 92.9833745,39.2703349 C93.4465544,38.9186603 93.9097344,38.5669856 94.2571193,38.3325359 C94.6045043,37.8636364 94.9518893,37.3947368 95.0676842,36.8086124 C95.1834792,36.1052632 95.1834792,35.5191388 95.1834792,34.8157895 L95.1834792,24.3827751 L99.0047138,24.3827751 C99.2363038,24.3827751 99.2363038,42.2009569 99.2363038,42.2009569 Z M105.952413,36.4569378 C106.068208,37.6291866 106.415593,38.4497608 107.226158,38.9186603 C108.036723,39.3875598 108.847288,39.6220096 110.005238,39.6220096 C110.352623,39.6220096 110.815802,39.6220096 111.278982,39.5047847 C111.742162,39.5047847 112.205342,39.3875598 112.552727,39.15311 C113.015907,39.0358852 113.363292,38.8014354 113.479087,38.4497608 C113.826472,38.0980861 113.826472,37.7464115 113.826472,37.1602871 C113.826472,36.6913876 113.710677,36.222488 113.363292,35.8708134 C113.015907,35.5191388 112.552727,35.1674641 112.089547,35.0502392 C111.626367,34.9330144 110.931597,34.6985646 110.352623,34.5813397 C109.773648,34.4641148 108.847288,34.2296651 108.268313,34.1124402 C107.457748,33.9952153 106.762978,33.7607656 106.184003,33.4090909 C105.489233,33.0574163 104.678668,33.0574163 104.215488,32.5885167 C103.752308,32.2368421 103.289128,31.7679426 102.941743,31.0645933 C102.594358,30.361244 102.478563,29.7751196 102.478563,28.8373206 C102.478563,27.8995215 102.825948,27.0789474 103.173333,26.3755981 C103.636513,25.6722488 104.331283,25.2033493 104.910258,24.7344498 C105.720823,24.3827751 106.415593,24.0311005 107.341953,23.9138756 C108.152518,23.7966507 109.078878,23.562201 109.889443,23.562201 C110.815802,23.562201 111.626367,23.6794258 112.436932,23.9138756 C113.247497,24.0311005 114.058062,24.3827751 114.637037,24.8516746 C115.331807,25.3205742 115.910782,25.7894737 116.258167,26.6100478 C116.721347,27.3133971 117.068732,28.2511962 117.068732,29.1889952 L113.015907,29.1889952 C112.900112,28.2511962 112.321137,27.5478469 111.742162,27.1961722 C111.047392,26.8444976 110.236828,26.7272727 109.542058,26.7272727 C109.194673,26.7272727 108.847288,26.7272727 108.615698,26.7272727 C108.384108,26.7272727 107.805133,26.8444976 107.457748,27.0789474 C107.110363,27.1961722 106.762978,27.430622 106.647183,27.5478469 C106.531388,27.8995215 106.299798,28.0167464 106.299798,28.4856459 C106.299798,28.9545455 106.415593,29.3062201 106.762978,29.6578947 C107.110363,30.0095694 107.573543,30.1267943 108.036723,30.4784689 C108.499903,30.5956938 109.194673,30.8301435 109.773648,30.9473684 C110.352623,31.0645933 111.278982,31.2990431 111.857957,31.4162679 C112.436932,31.5334928 113.363292,31.7679426 113.942267,32.1196172 C114.637037,32.4712919 115.216012,32.5885167 115.679192,33.0574163 C116.142372,33.4090909 116.605552,33.8779904 116.952937,34.5813397 C117.300322,35.284689 117.416117,35.8708134 117.416117,36.8086124 C117.416117,37.9808612 117.068732,38.8014354 116.605552,39.6220096 C116.142372,40.4425837 115.447602,40.9114833 114.637037,41.3803828 C113.826472,41.8492823 113.015907,42.2009569 112.089547,42.3181818 C111.163187,42.4354067 110.121033,42.6698565 109.310468,42.6698565 C108.152518,42.6698565 107.226158,42.5526316 106.299798,42.3181818 C105.373438,41.9665072 104.562873,41.6148325 103.868103,41.145933 C103.173333,40.6770335 102.594358,39.9736842 102.246973,39.15311 C101.899588,38.3325359 101.552204,37.5119617 101.552204,36.3397129 L105.952413,36.4569378 L105.952413,36.4569378 Z M118.921452,24.1483254 L121.816326,24.1483254 L121.816326,18.7559809 L125.637561,18.7559809 L125.637561,24.1483254 L129.227205,24.1483254 L129.227205,27.0789474 L125.637561,27.0789474 L125.637561,36.6913876 C125.637561,37.1602871 125.637561,37.5119617 125.637561,37.8636364 C125.637561,38.215311 125.753356,38.3325359 125.984946,38.6842105 C126.100741,38.8014354 126.332331,39.0358852 126.679716,39.15311 C127.027101,39.2703349 127.374486,39.2703349 127.606076,39.2703349 C127.837666,39.2703349 128.069256,39.2703349 128.41664,39.2703349 C128.764025,39.2703349 128.87982,39.2703349 129.227205,39.15311 L129.227205,42.2009569 C128.764025,42.2009569 128.41664,42.3181818 127.953461,42.3181818 C127.490281,42.3181818 127.142896,42.3181818 126.679716,42.3181818 C125.753356,42.3181818 124.711201,42.2009569 124.132226,41.9665072 C123.437456,41.8492823 122.974276,41.4976077 122.626891,41.145933 C122.279506,40.7942584 121.932121,40.3253589 121.816326,39.6220096 C121.700531,38.9186603 121.584736,38.4497608 121.584736,37.7464115 L121.584736,27.1961722 L118.689862,27.1961722 L118.921452,24.1483254 L118.921452,24.1483254 Z M132.12208,24.1483254 L135.82752,24.1483254 L135.82752,26.6100478 L135.82752,26.6100478 C136.2907,25.6722488 137.101264,24.8516746 138.027624,24.3827751 C138.953984,23.9138756 140.111934,23.6794258 141.269884,23.6794258 C142.775219,23.6794258 143.817374,24.0311005 144.975324,24.5 C145.901684,24.9688995 146.943838,25.6722488 147.522813,26.6100478 C148.217583,27.5478469 148.680763,28.6028708 149.143943,29.6578947 C149.491328,30.8301435 149.607123,32.1196172 149.607123,33.4090909 C149.607123,34.5813397 149.491328,35.8708134 149.143943,37.0430622 C148.796558,38.215311 148.333378,39.15311 147.638608,40.0909091 C146.943838,41.0287081 146.133273,41.7320574 145.206914,42.2009569 C144.280554,42.6698565 143.122604,43.0215311 141.848859,43.0215311 C141.154089,43.0215311 140.690909,43.0215311 140.111934,42.9043062 C139.417164,42.7870813 138.953984,42.5526316 138.490804,42.4354067 C138.027624,42.3181818 137.564444,41.9665072 136.98547,41.6148325 C136.52229,41.2631579 136.174905,40.7942584 135.82752,40.3253589 L135.82752,40.3253589 L135.82752,49 L132.006285,49 L132.006285,24.1483254 L132.12208,24.1483254 Z M145.785889,33.1746411 C145.785889,32.354067 145.670094,31.5334928 145.438504,30.7129187 C145.322709,29.8923445 144.975324,29.1889952 144.512144,28.6028708 C144.048964,27.8995215 143.585784,27.430622 142.891014,27.0789474 C142.196244,26.7272727 141.617269,26.6100478 140.806704,26.6100478 C139.185574,26.6100478 137.911829,27.3133971 137.101264,28.3684211 C136.2907,29.5406699 135.82752,31.1818182 135.82752,32.9401914 C135.82752,33.8779904 135.943315,34.6985646 136.174905,35.5191388 C136.2907,36.3397129 136.638085,37.0430622 137.101264,37.5119617 C137.564444,37.9808612 138.027624,38.4497608 138.722394,38.8014354 C139.417164,39.15311 139.996139,39.2703349 140.806704,39.2703349 C141.733064,39.2703349 142.427834,39.15311 143.006809,38.8014354 C143.701579,38.4497608 144.164759,37.9808612 144.512144,37.277512 C144.859529,36.5741627 145.206914,35.9880383 145.322709,35.284689 C145.785889,34.8157895 145.785889,33.9952153 145.785889,33.1746411 L145.785889,33.1746411 Z M152.849383,17.2320574 L156.670617,17.2320574 L156.670617,20.9832536 L152.849383,20.9832536 C152.849383,20.9832536 152.849383,17.2320574 152.849383,17.2320574 Z M152.849383,24.1483254 L156.670617,24.1483254 L156.670617,42.2009569 L152.849383,42.2009569 L152.849383,24.1483254 L152.849383,24.1483254 Z M160.260262,17.2320574 L164.081496,17.2320574 L164.081496,42.2009569 L160.260262,42.2009569 L160.260262,17.2320574 L160.260262,17.2320574 Z M176.23997,42.6698565 C174.734635,42.6698565 173.46089,42.3181818 172.418736,41.9665072 C171.260786,41.4976077 170.334426,40.7942584 169.523861,39.9736842 C168.713296,39.15311 168.250116,38.215311 167.786936,37.0430622 C167.439551,35.8708134 167.092166,34.5813397 167.092166,33.1746411 C167.092166,31.8851675 167.207961,30.5956938 167.786936,29.423445 C168.250116,28.2511962 168.713296,27.3133971 169.523861,26.492823 C170.334426,25.6722488 171.260786,24.9688995 172.418736,24.5 C173.576685,24.0311005 174.85043,23.7966507 176.23997,23.7966507 C177.62951,23.7966507 179.01905,24.1483254 180.061205,24.5 C181.219155,24.9688995 182.145514,25.6722488 182.956079,26.492823 C183.766644,27.3133971 184.229824,28.2511962 184.693004,29.423445 C185.040389,30.5956938 185.387774,31.8851675 185.387774,33.1746411 C185.387774,34.6985646 185.271979,35.7535885 184.693004,37.0430622 C184.345619,38.215311 183.766644,39.15311 182.956079,39.9736842 C182.145514,40.7942584 181.219155,41.4976077 180.061205,41.9665072 C178.78746,42.5526316 177.62951,42.6698565 176.23997,42.6698565 L176.23997,42.6698565 Z M176.23997,39.6220096 C177.050535,39.6220096 177.8611,39.5047847 178.440075,39.15311 C179.01905,38.8014354 179.598025,38.3325359 180.061205,37.6291866 C180.524385,36.9258373 180.755975,36.3397129 180.987565,35.5191388 C181.10336,34.6985646 181.334949,33.9952153 181.334949,33.291866 C181.334949,32.4712919 181.219155,31.7679426 180.987565,31.0645933 C180.755975,30.361244 180.524385,29.5406699 180.061205,28.9545455 C179.598025,28.2511962 179.134845,27.7822967 178.440075,27.430622 C177.745305,27.0789474 176.93474,26.9617225 176.23997,26.9617225 C175.5452,26.9617225 174.61884,27.0789474 174.039865,27.430622 C173.345095,27.7822967 172.881915,28.2511962 172.418736,28.9545455 C171.955556,29.6578947 171.723966,30.2440191 171.492376,31.0645933 C171.376581,31.8851675 171.144991,32.5885167 171.144991,33.291866 C171.144991,34.1124402 171.260786,34.9330144 171.492376,35.5191388 C171.608171,36.3397129 171.955556,37.0430622 172.418736,37.6291866 C172.881915,38.3325359 173.345095,38.8014354 174.039865,39.15311 C174.61884,39.3875598 175.31361,39.6220096 176.23997,39.6220096 L176.23997,39.6220096 Z M186.429929,24.1483254 L189.324804,24.1483254 L189.324804,18.7559809 L193.146038,18.7559809 L193.146038,24.1483254 L196.735683,24.1483254 L196.735683,27.0789474 L193.377628,27.0789474 L193.377628,36.6913876 C193.377628,37.1602871 193.377628,37.5119617 193.377628,37.8636364 C193.377628,38.215311 193.493423,38.3325359 193.725013,38.6842105 C193.840808,38.8014354 194.072398,39.0358852 194.419783,39.15311 C194.767168,39.2703349 195.114553,39.2703349 195.346143,39.2703349 C195.577733,39.2703349 195.809323,39.2703349 196.156708,39.2703349 C196.504093,39.2703349 196.619888,39.2703349 196.967273,39.15311 L196.967273,42.2009569 C196.504093,42.2009569 196.156708,42.3181818 195.693528,42.3181818 C195.230348,42.3181818 194.882963,42.3181818 194.419783,42.3181818 C193.493423,42.3181818 192.451268,42.2009569 191.872293,41.9665072 C191.177523,41.8492823 190.714343,41.4976077 190.366958,41.145933 C190.019574,40.7942584 189.672189,40.3253589 189.556394,39.6220096 C189.440599,38.9186603 189.440599,38.3325359 189.440599,37.6291866 L189.440599,27.0789474 L186.429929,27.0789474 L186.429929,24.1483254 L186.429929,24.1483254 Z" id="Shape" fill="#272727" fill-rule="nonzero"></path>
                    <polygon id="Path" fill="#00B67A" points="47.2443547 17.2320574 29.1803367 17.2320574 23.5063823 0 17.832428 17.2320574 0 17.2320574 14.4743734 28.0167464 9.03200898 45.2488038 23.5063823 34.4641148 37.9807557 45.2488038 32.4225963 28.0167464"></polygon>
                    <polygon id="Path" fill="#005128" points="33.8121362 31.8851675 32.5383913 28.0167464 23.5063823 34.6985646"></polygon>
                </g>
            </g>
        </g>
    </g>
</svg>