<?xml version="1.0" encoding="UTF-8"?>
<svg width="20px" height="18px" viewBox="0 0 20 18" version="1.1" xmlns="http://www.w3.org/2000/svg" xmlns:xlink="http://www.w3.org/1999/xlink">
    <title>warning</title>
    <g id="Website" stroke="none" stroke-width="1" fill="none" fill-rule="evenodd">
        <g id="Verify-failed" transform="translate(-450, -508)" fill="#FFFFFF">
            <g id="Group-6" transform="translate(429, 493)">
                <g id="warning" transform="translate(21, 15)" fill-rule="nonzero">
                    <path d="M19.8189907,15.866967 L11.2798977,0.746639307 C11.0248875,0.286460302 10.5339264,0 10.000241,0 C9.46655561,0 8.97559452,0.286460302 8.72058432,0.746639307 L0.181491413,15.8590671 C-0.0677834485,16.3051631 -0.0598038217,16.8470402 0.202502483,17.2858778 C0.464808787,17.7247153 0.942819784,17.995899 1.46114813,17.9999646 L18.5393339,17.9999646 C19.0581217,18.0035672 19.5383735,17.7316042 19.7948462,17.2889414 C20.0594958,16.8527667 20.0686853,16.3115561 19.8189907,15.866967 Z M1.71064094,16.419957 L10.000241,1.73412152 L18.2898411,16.419957 L1.71064094,16.419957 Z" id="Shape"></path>
                    <path d="M10.000241,12.4700282 C9.55575368,12.4700282 9.19542549,12.8237169 9.19542549,13.2600139 L9.19542549,14.0499997 C9.19542549,14.4862968 9.55575368,14.8399855 10.000241,14.8399855 C10.4447284,14.8399855 10.8050566,14.4862968 10.8050566,14.0499997 L10.8050566,13.2600139 C10.8050566,12.8237169 10.4447284,12.4700282 10.000241,12.4700282 Z M9.19542549,6.15014199 L9.19542549,10.8900566 C9.19542549,11.3263537 9.55575368,11.6800424 10.000241,11.6800424 C10.4447284,11.6800424 10.8050566,11.3263537 10.8050566,10.8900566 L10.8050566,6.15014199 C10.8050566,5.7138449 10.4447284,5.36015622 10.000241,5.36015622 C9.55575368,5.36015622 9.19542549,5.7138449 9.19542549,6.15014199 Z" id="Shape"></path>
                </g>
            </g>
        </g>
    </g>
</svg>