<?xml version="1.0" encoding="UTF-8"?>
<svg width="24px" height="24px" viewBox="0 0 24 24" version="1.1" xmlns="http://www.w3.org/2000/svg" xmlns:xlink="http://www.w3.org/1999/xlink">
    <title>Group 55</title>
    <g id="Website" stroke="none" stroke-width="1" fill="none" fill-rule="evenodd">
        <g id="Group-55">
            <circle id="Oval" stroke="#979797" fill="#FFFFFF" cx="11.7842275" cy="11.4699814" r="10.3414893"></circle>
            <path d="M10.4873269,0.0654363648 C6.34682077,0.497524705 2.64720184,3.2234522 0.965356902,7.08097978 C-0.118477778,9.57137985 -0.298855019,12.4388752 0.470733595,15.0786993 C1.42132794,18.3702697 3.88030341,21.1511902 7.06204482,22.5420433 C9.55244489,23.625878 12.4199402,23.8062552 15.0599214,23.0366666 C19.0112515,21.8975246 22.1224446,18.6532483 23.1437443,14.6227282 C24.7382289,8.30653943 20.8260225,1.84831142 14.4939643,0.340401672 C13.1031112,0.0104433034 11.87818,-0.0761314877 10.4873269,0.0654363648 Z M10.64445,7.36380124 C11.6497231,8.69934701 12.4985018,9.79920824 12.5299264,9.79920824 C12.561351,9.79920824 13.6065334,8.69934701 14.8396349,7.36380124 L17.0943505,4.92839423 L18.3749032,4.92839423 L18.0999379,5.21938608 C17.9428148,5.38373678 16.9215151,6.49161128 15.82951,7.6780473 C14.737505,8.8643262 13.6690683,10.0188662 13.456638,10.2312966 L13.079857,10.6319603 L16.0259138,14.55218 C17.6442811,16.7126217 18.9719707,18.50351 18.9719707,18.5355631 C18.9719707,18.5748439 18.0059783,18.5980981 16.8347832,18.5980981 L14.6903681,18.5902419 L12.6949055,15.9191504 C11.320079,14.0729547 10.6758746,13.279012 10.6130254,13.3266203 C10.5658884,13.3659011 9.45000067,14.5682065 8.13048144,15.9977119 L5.73435519,18.5980981 L5.12911727,18.5980981 C4.791617,18.5980981 4.51665169,18.5820715 4.51665169,18.5588173 C4.51665169,18.5355631 5.7657798,17.1679642 7.28955897,15.5263428 C8.8062676,13.8844071 10.0632519,12.5095806 10.0784928,12.4863263 C10.0866632,12.4542732 8.83753509,10.7498026 7.30558552,8.69934701 C5.77363595,6.65674759 4.51665169,4.96767499 4.51665169,4.95164844 C4.51665169,4.9364075 5.48264409,4.92839423 6.66923724,4.92839423 L8.82150854,4.92839423 L10.64445,7.36380124 Z" id="path2" fill="#030405" fill-rule="nonzero"></path>
            <path d="M6.45743539,5.98111855 C6.48870287,6.03611161 8.46798172,8.69149086 10.8408538,11.8650619 L15.1617372,17.6473466 L16.1277296,17.6553599 C16.7249542,17.6553599 17.0864943,17.6239353 17.0704678,17.5767984 C17.0632401,17.5375176 15.0911889,14.8824526 12.7030759,11.6846846 L8.35013944,5.87113242 L7.37629088,5.87113242 C6.56742151,5.87113242 6.4022852,5.88715897 6.45759251,5.98111855 L6.45743539,5.98111855 Z" id="path4" fill="#030405" fill-rule="nonzero"></path>
        </g>
    </g>
</svg>